<mxfile host="app.diagrams.net" agent="Mozilla/5.0 (Windows NT 10.0; Win64; x64; rv:134.0) Gecko/20100101 Firefox/134.0" version="26.0.5">
  <diagram name="Page-1" id="w7U51ZjWZGYtkXhOHHoq">
    <mxGraphModel dx="1517" dy="818" grid="1" gridSize="10" guides="1" tooltips="1" connect="1" arrows="1" fold="1" page="1" pageScale="1" pageWidth="827" pageHeight="1169" math="0" shadow="0">
      <root>
        <mxCell id="0" />
        <mxCell id="1" parent="0" />
        <mxCell id="2tEp5BUKAvQzvNhrm2Cs-67" value="" style="rounded=0;whiteSpace=wrap;html=1;" vertex="1" parent="1">
          <mxGeometry x="170" y="430" width="470" height="280" as="geometry" />
        </mxCell>
        <mxCell id="2tEp5BUKAvQzvNhrm2Cs-1" value=":app" style="rounded=0;whiteSpace=wrap;html=1;" vertex="1" parent="1">
          <mxGeometry x="280" y="200" width="80" height="40" as="geometry" />
        </mxCell>
        <mxCell id="2tEp5BUKAvQzvNhrm2Cs-2" value=":client" style="shape=umlActor;verticalLabelPosition=bottom;verticalAlign=top;html=1;outlineConnect=0;" vertex="1" parent="1">
          <mxGeometry x="190" y="170" width="30" height="60" as="geometry" />
        </mxCell>
        <mxCell id="2tEp5BUKAvQzvNhrm2Cs-5" value="" style="endArrow=none;dashed=1;html=1;rounded=0;" edge="1" parent="1" source="2tEp5BUKAvQzvNhrm2Cs-27">
          <mxGeometry width="50" height="50" relative="1" as="geometry">
            <mxPoint x="200" y="824" as="sourcePoint" />
            <mxPoint x="200" y="260" as="targetPoint" />
          </mxGeometry>
        </mxCell>
        <mxCell id="2tEp5BUKAvQzvNhrm2Cs-7" value=":server" style="rounded=0;whiteSpace=wrap;html=1;" vertex="1" parent="1">
          <mxGeometry x="400" y="200" width="80" height="40" as="geometry" />
        </mxCell>
        <mxCell id="2tEp5BUKAvQzvNhrm2Cs-8" value=":user_acc" style="rounded=0;whiteSpace=wrap;html=1;" vertex="1" parent="1">
          <mxGeometry x="520" y="200" width="80" height="40" as="geometry" />
        </mxCell>
        <mxCell id="2tEp5BUKAvQzvNhrm2Cs-9" value="" style="endArrow=none;dashed=1;html=1;rounded=0;" edge="1" parent="1" source="2tEp5BUKAvQzvNhrm2Cs-17">
          <mxGeometry width="50" height="50" relative="1" as="geometry">
            <mxPoint x="319.7" y="824" as="sourcePoint" />
            <mxPoint x="319.7" y="260" as="targetPoint" />
          </mxGeometry>
        </mxCell>
        <mxCell id="2tEp5BUKAvQzvNhrm2Cs-10" value="" style="endArrow=none;dashed=1;html=1;rounded=0;" edge="1" parent="1" source="2tEp5BUKAvQzvNhrm2Cs-24">
          <mxGeometry width="50" height="50" relative="1" as="geometry">
            <mxPoint x="439.7" y="824" as="sourcePoint" />
            <mxPoint x="439.7" y="260" as="targetPoint" />
          </mxGeometry>
        </mxCell>
        <mxCell id="2tEp5BUKAvQzvNhrm2Cs-11" value="" style="endArrow=none;dashed=1;html=1;rounded=0;" edge="1" parent="1">
          <mxGeometry width="50" height="50" relative="1" as="geometry">
            <mxPoint x="559.9494382022472" y="630" as="sourcePoint" />
            <mxPoint x="559.7" y="260" as="targetPoint" />
          </mxGeometry>
        </mxCell>
        <mxCell id="2tEp5BUKAvQzvNhrm2Cs-12" value="" style="rounded=0;whiteSpace=wrap;html=1;" vertex="1" parent="1">
          <mxGeometry x="190" y="280" width="20" height="60" as="geometry" />
        </mxCell>
        <mxCell id="2tEp5BUKAvQzvNhrm2Cs-13" value=":receiver" style="rounded=0;whiteSpace=wrap;html=1;" vertex="1" parent="1">
          <mxGeometry x="640" y="200" width="80" height="40" as="geometry" />
        </mxCell>
        <mxCell id="2tEp5BUKAvQzvNhrm2Cs-14" value="" style="endArrow=classic;html=1;rounded=0;exitX=1;exitY=0.5;exitDx=0;exitDy=0;entryX=-0.05;entryY=0.071;entryDx=0;entryDy=0;entryPerimeter=0;" edge="1" parent="1" source="2tEp5BUKAvQzvNhrm2Cs-12" target="2tEp5BUKAvQzvNhrm2Cs-17">
          <mxGeometry width="50" height="50" relative="1" as="geometry">
            <mxPoint x="300" y="350" as="sourcePoint" />
            <mxPoint x="280" y="306" as="targetPoint" />
          </mxGeometry>
        </mxCell>
        <mxCell id="2tEp5BUKAvQzvNhrm2Cs-15" value="init" style="text;html=1;align=center;verticalAlign=middle;resizable=0;points=[];autosize=1;strokeColor=none;fillColor=none;" vertex="1" parent="1">
          <mxGeometry x="230" y="280" width="40" height="30" as="geometry" />
        </mxCell>
        <mxCell id="2tEp5BUKAvQzvNhrm2Cs-18" value="" style="endArrow=none;dashed=1;html=1;rounded=0;" edge="1" parent="1" target="2tEp5BUKAvQzvNhrm2Cs-17">
          <mxGeometry width="50" height="50" relative="1" as="geometry">
            <mxPoint x="319.7" y="824" as="sourcePoint" />
            <mxPoint x="319.7" y="260" as="targetPoint" />
          </mxGeometry>
        </mxCell>
        <mxCell id="2tEp5BUKAvQzvNhrm2Cs-22" value="" style="endArrow=classic;html=1;rounded=0;entryX=1.096;entryY=0.796;entryDx=0;entryDy=0;exitX=-0.071;exitY=0.115;exitDx=0;exitDy=0;exitPerimeter=0;entryPerimeter=0;" edge="1" parent="1" source="2tEp5BUKAvQzvNhrm2Cs-17" target="2tEp5BUKAvQzvNhrm2Cs-12">
          <mxGeometry width="50" height="50" relative="1" as="geometry">
            <mxPoint x="280" y="340" as="sourcePoint" />
            <mxPoint x="330" y="290" as="targetPoint" />
          </mxGeometry>
        </mxCell>
        <mxCell id="2tEp5BUKAvQzvNhrm2Cs-23" value="validate" style="text;html=1;align=center;verticalAlign=middle;resizable=0;points=[];autosize=1;strokeColor=none;fillColor=none;" vertex="1" parent="1">
          <mxGeometry x="200" y="330" width="60" height="30" as="geometry" />
        </mxCell>
        <mxCell id="2tEp5BUKAvQzvNhrm2Cs-25" value="" style="endArrow=none;dashed=1;html=1;rounded=0;" edge="1" parent="1" target="2tEp5BUKAvQzvNhrm2Cs-24">
          <mxGeometry width="50" height="50" relative="1" as="geometry">
            <mxPoint x="440" y="630" as="sourcePoint" />
            <mxPoint x="439.7" y="260" as="targetPoint" />
          </mxGeometry>
        </mxCell>
        <mxCell id="2tEp5BUKAvQzvNhrm2Cs-24" value="" style="rounded=0;whiteSpace=wrap;html=1;" vertex="1" parent="1">
          <mxGeometry x="430" y="280" width="20" height="420" as="geometry" />
        </mxCell>
        <mxCell id="2tEp5BUKAvQzvNhrm2Cs-28" value="" style="endArrow=none;dashed=1;html=1;rounded=0;" edge="1" parent="1" source="2tEp5BUKAvQzvNhrm2Cs-45" target="2tEp5BUKAvQzvNhrm2Cs-27">
          <mxGeometry width="50" height="50" relative="1" as="geometry">
            <mxPoint x="200" y="824" as="sourcePoint" />
            <mxPoint x="200" y="260" as="targetPoint" />
          </mxGeometry>
        </mxCell>
        <mxCell id="2tEp5BUKAvQzvNhrm2Cs-27" value="" style="rounded=0;whiteSpace=wrap;html=1;" vertex="1" parent="1">
          <mxGeometry x="190" y="460" width="20" height="60" as="geometry" />
        </mxCell>
        <mxCell id="2tEp5BUKAvQzvNhrm2Cs-31" value="" style="rounded=0;whiteSpace=wrap;html=1;" vertex="1" parent="1">
          <mxGeometry x="550" y="280" width="20" height="500" as="geometry" />
        </mxCell>
        <mxCell id="2tEp5BUKAvQzvNhrm2Cs-39" value="" style="endArrow=none;dashed=1;html=1;rounded=0;" edge="1" parent="1">
          <mxGeometry width="50" height="50" relative="1" as="geometry">
            <mxPoint x="559.7" y="824" as="sourcePoint" />
            <mxPoint x="559.8109243697479" y="780.0000000000002" as="targetPoint" />
          </mxGeometry>
        </mxCell>
        <mxCell id="2tEp5BUKAvQzvNhrm2Cs-43" value="" style="endArrow=none;dashed=1;html=1;rounded=0;entryX=0.5;entryY=1;entryDx=0;entryDy=0;" edge="1" parent="1" target="2tEp5BUKAvQzvNhrm2Cs-24">
          <mxGeometry width="50" height="50" relative="1" as="geometry">
            <mxPoint x="439.7" y="824" as="sourcePoint" />
            <mxPoint x="439.94512195121956" y="690" as="targetPoint" />
          </mxGeometry>
        </mxCell>
        <mxCell id="2tEp5BUKAvQzvNhrm2Cs-46" value="" style="endArrow=none;dashed=1;html=1;rounded=0;" edge="1" parent="1" target="2tEp5BUKAvQzvNhrm2Cs-45">
          <mxGeometry width="50" height="50" relative="1" as="geometry">
            <mxPoint x="200" y="824" as="sourcePoint" />
            <mxPoint x="200" y="510" as="targetPoint" />
          </mxGeometry>
        </mxCell>
        <mxCell id="2tEp5BUKAvQzvNhrm2Cs-45" value="" style="rounded=0;whiteSpace=wrap;html=1;" vertex="1" parent="1">
          <mxGeometry x="190" y="640" width="20" height="60" as="geometry" />
        </mxCell>
        <mxCell id="2tEp5BUKAvQzvNhrm2Cs-17" value="" style="rounded=0;whiteSpace=wrap;html=1;" vertex="1" parent="1">
          <mxGeometry x="310" y="280" width="20" height="420" as="geometry" />
        </mxCell>
        <mxCell id="2tEp5BUKAvQzvNhrm2Cs-26" value="" style="endArrow=classic;html=1;rounded=0;entryX=1;entryY=0.5;entryDx=0;entryDy=0;dashed=1;" edge="1" parent="1" target="2tEp5BUKAvQzvNhrm2Cs-17">
          <mxGeometry width="50" height="50" relative="1" as="geometry">
            <mxPoint x="550" y="488" as="sourcePoint" />
            <mxPoint x="330" y="480" as="targetPoint" />
          </mxGeometry>
        </mxCell>
        <mxCell id="2tEp5BUKAvQzvNhrm2Cs-53" value="refuse" style="edgeLabel;html=1;align=center;verticalAlign=middle;resizable=0;points=[];" vertex="1" connectable="0" parent="2tEp5BUKAvQzvNhrm2Cs-26">
          <mxGeometry x="-0.0079" y="-12" relative="1" as="geometry">
            <mxPoint as="offset" />
          </mxGeometry>
        </mxCell>
        <mxCell id="2tEp5BUKAvQzvNhrm2Cs-47" value="" style="endArrow=classic;html=1;rounded=0;exitX=0.1;exitY=0.773;exitDx=0;exitDy=0;exitPerimeter=0;dashed=1;entryX=1.1;entryY=0.92;entryDx=0;entryDy=0;entryPerimeter=0;" edge="1" parent="1" source="2tEp5BUKAvQzvNhrm2Cs-31" target="2tEp5BUKAvQzvNhrm2Cs-17">
          <mxGeometry width="50" height="50" relative="1" as="geometry">
            <mxPoint x="547" y="661.8" as="sourcePoint" />
            <mxPoint x="340" y="670" as="targetPoint" />
          </mxGeometry>
        </mxCell>
        <mxCell id="2tEp5BUKAvQzvNhrm2Cs-55" value="Validate transfer" style="edgeLabel;html=1;align=center;verticalAlign=middle;resizable=0;points=[];" vertex="1" connectable="0" parent="2tEp5BUKAvQzvNhrm2Cs-47">
          <mxGeometry x="0.2884" y="-4" relative="1" as="geometry">
            <mxPoint x="-1" as="offset" />
          </mxGeometry>
        </mxCell>
        <mxCell id="2tEp5BUKAvQzvNhrm2Cs-56" value="" style="endArrow=none;dashed=1;html=1;rounded=0;" edge="1" parent="1" source="2tEp5BUKAvQzvNhrm2Cs-57">
          <mxGeometry width="50" height="50" relative="1" as="geometry">
            <mxPoint x="679" y="820" as="sourcePoint" />
            <mxPoint x="679.3700000000001" y="270" as="targetPoint" />
          </mxGeometry>
        </mxCell>
        <mxCell id="2tEp5BUKAvQzvNhrm2Cs-59" value="" style="endArrow=none;dashed=1;html=1;rounded=0;" edge="1" parent="1" target="2tEp5BUKAvQzvNhrm2Cs-57">
          <mxGeometry width="50" height="50" relative="1" as="geometry">
            <mxPoint x="679" y="820" as="sourcePoint" />
            <mxPoint x="679.3700000000001" y="270" as="targetPoint" />
          </mxGeometry>
        </mxCell>
        <mxCell id="2tEp5BUKAvQzvNhrm2Cs-57" value="" style="rounded=0;whiteSpace=wrap;html=1;" vertex="1" parent="1">
          <mxGeometry x="670" y="740" width="20" height="50" as="geometry" />
        </mxCell>
        <mxCell id="2tEp5BUKAvQzvNhrm2Cs-60" value="" style="endArrow=classic;html=1;rounded=0;exitX=1;exitY=0.071;exitDx=0;exitDy=0;entryX=0;entryY=0.5;entryDx=0;entryDy=0;exitPerimeter=0;" edge="1" parent="1">
          <mxGeometry width="50" height="50" relative="1" as="geometry">
            <mxPoint x="570" y="770" as="sourcePoint" />
            <mxPoint x="670" y="770" as="targetPoint" />
          </mxGeometry>
        </mxCell>
        <mxCell id="2tEp5BUKAvQzvNhrm2Cs-63" value="send" style="text;html=1;align=center;verticalAlign=middle;resizable=0;points=[];autosize=1;strokeColor=none;fillColor=none;" vertex="1" parent="1">
          <mxGeometry x="595" y="740" width="50" height="30" as="geometry" />
        </mxCell>
        <mxCell id="2tEp5BUKAvQzvNhrm2Cs-73" value="" style="endArrow=none;dashed=1;html=1;rounded=0;exitX=0.002;exitY=0.469;exitDx=0;exitDy=0;exitPerimeter=0;entryX=0.996;entryY=0.46;entryDx=0;entryDy=0;entryPerimeter=0;" edge="1" parent="1" source="2tEp5BUKAvQzvNhrm2Cs-67" target="2tEp5BUKAvQzvNhrm2Cs-67">
          <mxGeometry width="50" height="50" relative="1" as="geometry">
            <mxPoint x="590" y="530" as="sourcePoint" />
            <mxPoint x="550" y="560" as="targetPoint" />
            <Array as="points" />
          </mxGeometry>
        </mxCell>
        <mxCell id="2tEp5BUKAvQzvNhrm2Cs-74" value="alt" style="rounded=0;whiteSpace=wrap;html=1;" vertex="1" parent="1">
          <mxGeometry x="160" y="430" width="30" height="20" as="geometry" />
        </mxCell>
        <mxCell id="2tEp5BUKAvQzvNhrm2Cs-79" value="" style="endArrow=classic;html=1;rounded=0;entryX=1;entryY=0.5;entryDx=0;entryDy=0;" edge="1" parent="1">
          <mxGeometry width="50" height="50" relative="1" as="geometry">
            <mxPoint x="310" y="512" as="sourcePoint" />
            <mxPoint x="210" y="512" as="targetPoint" />
          </mxGeometry>
        </mxCell>
        <mxCell id="2tEp5BUKAvQzvNhrm2Cs-80" value="error msg" style="edgeLabel;html=1;align=center;verticalAlign=middle;resizable=0;points=[];" vertex="1" connectable="0" parent="2tEp5BUKAvQzvNhrm2Cs-79">
          <mxGeometry x="-0.0079" y="-12" relative="1" as="geometry">
            <mxPoint as="offset" />
          </mxGeometry>
        </mxCell>
        <mxCell id="2tEp5BUKAvQzvNhrm2Cs-81" value="" style="endArrow=classic;html=1;rounded=0;entryX=1;entryY=0.5;entryDx=0;entryDy=0;" edge="1" parent="1">
          <mxGeometry width="50" height="50" relative="1" as="geometry">
            <mxPoint x="310" y="669.37" as="sourcePoint" />
            <mxPoint x="210" y="669.37" as="targetPoint" />
          </mxGeometry>
        </mxCell>
        <mxCell id="2tEp5BUKAvQzvNhrm2Cs-82" value="valid message" style="edgeLabel;html=1;align=center;verticalAlign=middle;resizable=0;points=[];" vertex="1" connectable="0" parent="2tEp5BUKAvQzvNhrm2Cs-81">
          <mxGeometry x="-0.0079" y="-12" relative="1" as="geometry">
            <mxPoint as="offset" />
          </mxGeometry>
        </mxCell>
        <mxCell id="2tEp5BUKAvQzvNhrm2Cs-20" value="" style="endArrow=classic;html=1;rounded=0;exitX=1;exitY=0.071;exitDx=0;exitDy=0;entryX=-0.088;entryY=0.06;entryDx=0;entryDy=0;exitPerimeter=0;entryPerimeter=0;" edge="1" parent="1" source="2tEp5BUKAvQzvNhrm2Cs-17" target="2tEp5BUKAvQzvNhrm2Cs-31">
          <mxGeometry width="50" height="50" relative="1" as="geometry">
            <mxPoint x="340" y="310" as="sourcePoint" />
            <mxPoint x="410" y="310" as="targetPoint" />
          </mxGeometry>
        </mxCell>
        <mxCell id="2tEp5BUKAvQzvNhrm2Cs-84" value="Ask" style="edgeLabel;html=1;align=center;verticalAlign=middle;resizable=0;points=[];" vertex="1" connectable="0" parent="2tEp5BUKAvQzvNhrm2Cs-20">
          <mxGeometry x="-0.0767" y="5" relative="1" as="geometry">
            <mxPoint x="-1" as="offset" />
          </mxGeometry>
        </mxCell>
      </root>
    </mxGraphModel>
  </diagram>
</mxfile>
